<?xml version="1.0" encoding="utf-8"?>
<!-- Generator: Adobe Illustrator 19.1.1, SVG Export Plug-In . SVG Version: 6.00 Build 0)  -->
<svg version="1.1" id="Capa_1" xmlns="http://www.w3.org/2000/svg" xmlns:xlink="http://www.w3.org/1999/xlink" x="0px" y="0px"
	 viewBox="-139 262.5 316.4 316.4" style="enable-background:new -139 262.5 316.4 316.4;" xml:space="preserve">
<style type="text/css">
	.st0{fill:#FFFFFF;}
</style>
<g>
	<path class="st0" d="M166.8,392.9H86.4l-17-33.8c-2.1-4.1-6.5-6.4-11.1-5.7c-4.5,0.7-8.1,4.2-8.9,8.8l-7.6,46.9l-7.2,44.4L29,409.7
		l-12.4-96.9c-0.6-4.9-4.6-8.8-9.6-9.2c-5-0.4-9.6,2.6-11.1,7.4l-31.7,101.6l-9.5,30.5l-4.8-29.9l-7.2-44.2
		c-0.8-4.6-4.5-8.2-9.1-8.8c-4.6-0.6-9.1,1.9-11,6.2l-17.7,39.7h-33.3c-5.9,0-10.6,4.8-10.6,10.6s4.8,10.6,10.6,10.6h40.2
		c4.2,0,8-2.5,9.7-6.3l3-6.7l3-6.8l1.1,6.6l12.4,76.7c0.8,4.9,4.8,8.5,9.7,8.9c4.9,0.3,9.4-2.7,10.9-7.4l25.2-80.8l14.9-47.9l6,46.9
		l15.1,118c0.7,5.2,5.1,9.2,10.3,9.3c0.1,0,0.1,0,0.2,0c5.2,0,9.6-3.8,10.5-8.9l19.6-120.8l1.7-10.3l5,10l0.2,0.5
		c1.8,3.6,5.5,5.8,9.5,5.8h86.9c5.9,0,10.6-4.8,10.6-10.6C177.4,397.7,172.6,392.9,166.8,392.9z"/>
</g>
</svg>
